<mxfile host="app.diagrams.net" modified="2022-06-24T23:59:02.777Z" agent="5.0 (Windows NT 10.0; Win64; x64) AppleWebKit/537.36 (KHTML, like Gecko) Chrome/102.0.0.0 Safari/537.36" etag="pwiqsc8TwI-mu7q_vhEy" version="20.0.3" type="github">
  <diagram id="ftC3DknRFdkOz80WH8HA" name="Page-1">
    <mxGraphModel dx="2418" dy="2405" grid="1" gridSize="10" guides="1" tooltips="1" connect="1" arrows="1" fold="1" page="1" pageScale="1" pageWidth="827" pageHeight="1169" math="0" shadow="0">
      <root>
        <mxCell id="0" />
        <mxCell id="1" parent="0" />
        <mxCell id="QLrTmFQXKvRzsC_q6eQs-1" value="" style="strokeWidth=2;html=1;shape=mxgraph.flowchart.annotation_2;align=left;labelPosition=right;pointerEvents=1;direction=south;" vertex="1" parent="1">
          <mxGeometry x="150" y="110" width="510" height="50" as="geometry" />
        </mxCell>
        <mxCell id="QLrTmFQXKvRzsC_q6eQs-4" value="function: get_next_line&lt;br&gt;static char *buf = NULL;&lt;br&gt;static int t_ret = 0;&lt;br&gt;" style="whiteSpace=wrap;html=1;shape=mxgraph.basic.rectCallout;dx=30;dy=15;boundedLbl=1;fontSize=16;" vertex="1" parent="1">
          <mxGeometry x="150" y="-70" width="530" height="140" as="geometry" />
        </mxCell>
        <mxCell id="QLrTmFQXKvRzsC_q6eQs-7" value="i t_ret value == 0?" style="rounded=1;whiteSpace=wrap;html=1;fontSize=16;" vertex="1" parent="1">
          <mxGeometry x="345" y="60" width="120" height="60" as="geometry" />
        </mxCell>
        <mxCell id="QLrTmFQXKvRzsC_q6eQs-8" style="edgeStyle=orthogonalEdgeStyle;rounded=0;orthogonalLoop=1;jettySize=auto;html=1;exitX=0.5;exitY=1;exitDx=0;exitDy=0;fontSize=16;" edge="1" parent="1" source="QLrTmFQXKvRzsC_q6eQs-7" target="QLrTmFQXKvRzsC_q6eQs-7">
          <mxGeometry relative="1" as="geometry" />
        </mxCell>
        <mxCell id="QLrTmFQXKvRzsC_q6eQs-12" value="" style="edgeStyle=orthogonalEdgeStyle;rounded=0;orthogonalLoop=1;jettySize=auto;html=1;fontSize=16;" edge="1" parent="1" source="QLrTmFQXKvRzsC_q6eQs-9" target="QLrTmFQXKvRzsC_q6eQs-14">
          <mxGeometry relative="1" as="geometry">
            <mxPoint x="155" y="260" as="targetPoint" />
          </mxGeometry>
        </mxCell>
        <mxCell id="QLrTmFQXKvRzsC_q6eQs-9" value="yes" style="rounded=1;whiteSpace=wrap;html=1;fontSize=16;" vertex="1" parent="1">
          <mxGeometry x="130" y="170" width="50" height="30" as="geometry" />
        </mxCell>
        <mxCell id="QLrTmFQXKvRzsC_q6eQs-16" value="" style="edgeStyle=orthogonalEdgeStyle;rounded=0;orthogonalLoop=1;jettySize=auto;html=1;fontSize=16;" edge="1" parent="1" source="QLrTmFQXKvRzsC_q6eQs-10" target="QLrTmFQXKvRzsC_q6eQs-15">
          <mxGeometry relative="1" as="geometry" />
        </mxCell>
        <mxCell id="QLrTmFQXKvRzsC_q6eQs-10" value="no" style="rounded=0;whiteSpace=wrap;html=1;fontSize=16;" vertex="1" parent="1">
          <mxGeometry x="620" y="170" width="80" height="30" as="geometry" />
        </mxCell>
        <mxCell id="QLrTmFQXKvRzsC_q6eQs-14" value="read data from the file and write them to the buf.&lt;br&gt;if there is nothing to read&lt;br&gt;or error&lt;br&gt;return null" style="whiteSpace=wrap;html=1;aspect=fixed;fontSize=16;" vertex="1" parent="1">
          <mxGeometry x="70" y="240" width="170" height="170" as="geometry" />
        </mxCell>
        <mxCell id="QLrTmFQXKvRzsC_q6eQs-15" value="is there a newline charecter inside?" style="rounded=0;whiteSpace=wrap;html=1;fontSize=16;" vertex="1" parent="1">
          <mxGeometry x="555" y="240" width="210" height="160" as="geometry" />
        </mxCell>
        <mxCell id="QLrTmFQXKvRzsC_q6eQs-19" value="" style="strokeWidth=2;html=1;shape=mxgraph.flowchart.annotation_2;align=left;labelPosition=right;pointerEvents=1;fontSize=16;direction=south;" vertex="1" parent="1">
          <mxGeometry x="560" y="400" width="180" height="50" as="geometry" />
        </mxCell>
        <mxCell id="QLrTmFQXKvRzsC_q6eQs-25" value="" style="edgeStyle=orthogonalEdgeStyle;rounded=0;orthogonalLoop=1;jettySize=auto;html=1;fontSize=16;" edge="1" parent="1" source="QLrTmFQXKvRzsC_q6eQs-22" target="QLrTmFQXKvRzsC_q6eQs-24">
          <mxGeometry relative="1" as="geometry" />
        </mxCell>
        <mxCell id="QLrTmFQXKvRzsC_q6eQs-22" value="yes" style="rounded=1;whiteSpace=wrap;html=1;fontSize=16;" vertex="1" parent="1">
          <mxGeometry x="520" y="450" width="80" height="50" as="geometry" />
        </mxCell>
        <mxCell id="QLrTmFQXKvRzsC_q6eQs-27" value="" style="edgeStyle=orthogonalEdgeStyle;rounded=0;orthogonalLoop=1;jettySize=auto;html=1;fontSize=16;" edge="1" parent="1" source="QLrTmFQXKvRzsC_q6eQs-23" target="QLrTmFQXKvRzsC_q6eQs-26">
          <mxGeometry relative="1" as="geometry" />
        </mxCell>
        <mxCell id="QLrTmFQXKvRzsC_q6eQs-23" value="no" style="rounded=0;whiteSpace=wrap;html=1;fontSize=16;" vertex="1" parent="1">
          <mxGeometry x="700" y="450" width="80" height="50" as="geometry" />
        </mxCell>
        <mxCell id="QLrTmFQXKvRzsC_q6eQs-24" value="t_read -= data_length till the newline incluging newline&amp;nbsp;&lt;br&gt;copy data from buf to str including newline and adding null in the end&lt;br&gt;if t_read is not zero&lt;br&gt;move remaining data to inside buf to front zero location from the end.&lt;br&gt;return str;" style="whiteSpace=wrap;html=1;fontSize=16;rounded=1;" vertex="1" parent="1">
          <mxGeometry x="240" y="520" width="300" height="155" as="geometry" />
        </mxCell>
        <mxCell id="QLrTmFQXKvRzsC_q6eQs-29" value="" style="edgeStyle=orthogonalEdgeStyle;rounded=0;orthogonalLoop=1;jettySize=auto;html=1;fontSize=16;" edge="1" parent="1" source="QLrTmFQXKvRzsC_q6eQs-26" target="QLrTmFQXKvRzsC_q6eQs-28">
          <mxGeometry relative="1" as="geometry" />
        </mxCell>
        <mxCell id="QLrTmFQXKvRzsC_q6eQs-26" value="read file till you find a newline&lt;br&gt;" style="rounded=0;whiteSpace=wrap;html=1;fontSize=16;" vertex="1" parent="1">
          <mxGeometry x="580" y="580" width="230" height="80" as="geometry" />
        </mxCell>
        <mxCell id="QLrTmFQXKvRzsC_q6eQs-31" value="" style="edgeStyle=orthogonalEdgeStyle;rounded=0;orthogonalLoop=1;jettySize=auto;html=1;fontSize=16;" edge="1" parent="1" source="QLrTmFQXKvRzsC_q6eQs-28" target="QLrTmFQXKvRzsC_q6eQs-30">
          <mxGeometry relative="1" as="geometry" />
        </mxCell>
        <mxCell id="QLrTmFQXKvRzsC_q6eQs-33" value="" style="edgeStyle=orthogonalEdgeStyle;rounded=0;orthogonalLoop=1;jettySize=auto;html=1;fontSize=16;" edge="1" parent="1" source="QLrTmFQXKvRzsC_q6eQs-28" target="QLrTmFQXKvRzsC_q6eQs-32">
          <mxGeometry relative="1" as="geometry" />
        </mxCell>
        <mxCell id="QLrTmFQXKvRzsC_q6eQs-28" value="did you find a newline" style="whiteSpace=wrap;html=1;fontSize=16;rounded=0;" vertex="1" parent="1">
          <mxGeometry x="622.5" y="810" width="145" height="60" as="geometry" />
        </mxCell>
        <mxCell id="QLrTmFQXKvRzsC_q6eQs-35" value="" style="edgeStyle=orthogonalEdgeStyle;rounded=0;orthogonalLoop=1;jettySize=auto;html=1;fontSize=16;" edge="1" parent="1" source="QLrTmFQXKvRzsC_q6eQs-30">
          <mxGeometry relative="1" as="geometry">
            <mxPoint x="420" y="930" as="targetPoint" />
          </mxGeometry>
        </mxCell>
        <mxCell id="QLrTmFQXKvRzsC_q6eQs-30" value="yes" style="whiteSpace=wrap;html=1;fontSize=16;rounded=0;" vertex="1" parent="1">
          <mxGeometry x="500" y="900" width="110" height="60" as="geometry" />
        </mxCell>
        <mxCell id="QLrTmFQXKvRzsC_q6eQs-39" value="" style="edgeStyle=orthogonalEdgeStyle;rounded=0;orthogonalLoop=1;jettySize=auto;html=1;fontSize=16;" edge="1" parent="1" source="QLrTmFQXKvRzsC_q6eQs-32" target="QLrTmFQXKvRzsC_q6eQs-38">
          <mxGeometry relative="1" as="geometry" />
        </mxCell>
        <mxCell id="QLrTmFQXKvRzsC_q6eQs-32" value="no" style="whiteSpace=wrap;html=1;fontSize=16;rounded=0;" vertex="1" parent="1">
          <mxGeometry x="780" y="900" width="145" height="60" as="geometry" />
        </mxCell>
        <mxCell id="QLrTmFQXKvRzsC_q6eQs-36" style="edgeStyle=orthogonalEdgeStyle;rounded=0;orthogonalLoop=1;jettySize=auto;html=1;fontSize=16;" edge="1" parent="1">
          <mxGeometry relative="1" as="geometry">
            <mxPoint x="280" y="680" as="targetPoint" />
            <mxPoint x="480" y="930" as="sourcePoint" />
          </mxGeometry>
        </mxCell>
        <mxCell id="QLrTmFQXKvRzsC_q6eQs-38" value="copy t_read of data to the str ending with null charecter inside&lt;br&gt;" style="whiteSpace=wrap;html=1;fontSize=16;rounded=0;" vertex="1" parent="1">
          <mxGeometry x="780" y="1040" width="145" height="100" as="geometry" />
        </mxCell>
      </root>
    </mxGraphModel>
  </diagram>
</mxfile>
